<?xml version="1.0" encoding="UTF-8" standalone="no"?>
<!-- Created with Inkscape (http://www.inkscape.org/) -->

<svg
   xmlns:dc="http://purl.org/dc/elements/1.1/"
   xmlns:cc="http://creativecommons.org/ns#"
   xmlns:rdf="http://www.w3.org/1999/02/22-rdf-syntax-ns#"
   xmlns:svg="http://www.w3.org/2000/svg"
   xmlns="http://www.w3.org/2000/svg"
   xmlns:sodipodi="http://sodipodi.sourceforge.net/DTD/sodipodi-0.dtd"
   xmlns:inkscape="http://www.inkscape.org/namespaces/inkscape"
   id="svg2"
   xml:space="preserve"
   version="1.1"
   viewBox="0 0 216.611 235.777"
   inkscape:version="0.91 r13725"
   sodipodi:docname="tree_custom.svg"><defs
     id="defs30" /><sodipodi:namedview
     pagecolor="#ffffff"
     bordercolor="#666666"
     borderopacity="1"
     objecttolerance="10"
     gridtolerance="10"
     guidetolerance="10"
     inkscape:pageopacity="0"
     inkscape:pageshadow="2"
     inkscape:window-width="1920"
     inkscape:window-height="1018"
     id="namedview28"
     showgrid="false"
     inkscape:zoom="4.0037834"
     inkscape:cx="119.38423"
     inkscape:cy="89.541917"
     inkscape:window-x="-8"
     inkscape:window-y="-8"
     inkscape:window-maximized="1"
     inkscape:current-layer="layer3" /><g
     inkscape:groupmode="layer"
     id="layer2"
     inkscape:label="Trunk/Grass"
     style="display:inline"><g
       transform="translate(-1.4341578e-6,3.5473596e-7)"
       id="Layer_1"><g
         id="g7"><path
           inkscape:connector-curvature="0"
           id="path9"
           style="fill:#008000;fill-rule:evenodd"
           d="m 123.07,229.51 c 1.943,-0.289 3.383,-0.576 4.859,-1.008 1.332,-0.432 2.52,-0.9 3.42,-1.404 l 3.025,3.24 4.211,-5.869 c 1.873,0.072 3.023,0.541 3.852,1.404 0.793,0.865 0.396,2.953 0.613,3.637 0.107,0.576 0.107,0.576 0,0 1.439,0 2.592,-0.217 3.6,-0.793 0.971,-0.611 1.547,-1.439 2.016,-2.627 l 2.016,4.031 c 1.477,-1.512 2.484,-2.844 3.023,-3.852 0.541,-1.08 0.613,-1.836 0.217,-2.412 0.648,0.973 2.053,1.801 3.816,2.629 1.799,0.791 4.572,2.051 7.057,2.23 2.447,0.037 5.004,-0.971 7.271,-1.619 2.123,-0.721 3.887,-1.332 5.436,-2.232 0.072,0.828 0.289,1.584 0.793,2.412 0.432,0.721 1.043,1.512 1.836,2.232 l 1.799,-2.629 c 0.361,0.865 0.9,1.584 1.621,2.016 0.646,0.396 1.619,0.648 2.627,0.613 -0.432,-0.973 -0.324,-1.729 0.18,-2.412 0.504,-0.648 1.512,-1.188 3.025,-1.621 l 2.627,4.861 3.023,-3.637 c 0.324,0.504 1.01,0.973 2.197,1.404 1.223,0.432 2.592,0.828 4.645,1.188 -3.098,1.439 -6.625,2.449 -10.873,3.025 -4.355,0.504 -10.332,0.18 -14.328,0.432 -3.852,0.324 -6.229,1.223 -9.072,1.188 -3.023,-0.324 -5.795,-2.447 -8.855,-2.195 -3.24,0.287 -6.48,3.707 -9.863,4.031 -3.42,0.072 -6.984,-1.908 -9.865,-2.447 -2.951,-0.469 -4.896,0.395 -7.488,-0.182 -2.629,-0.646 -5.545,-1.906 -8.461,-3.634 z" /><path
           inkscape:connector-curvature="0"
           id="path15"
           style="fill:#a16121;fill-rule:evenodd"
           d="m 158.74,228.68 c 0.611,-3.527 1.008,-6.373 0.791,-9.072 -0.18,-2.629 0,-3.275 -1.836,-6.66 -1.906,-3.527 -5.111,-8.137 -9.611,-14.111 l 15.984,-5.832 c 1.547,3.672 3.061,7.307 4.535,10.908 1.441,3.6 3.457,6.551 4.248,10.656 0.721,4.066 0.504,8.494 -0.252,13.57 -3.6,2.557 -6.479,3.889 -8.783,3.996 -2.412,0.072 -3.923,-1.08 -5.076,-3.455 z" /><path
           inkscape:connector-curvature="0"
           id="path25"
           style="fill-rule:evenodd;stroke:#000000;stroke-width:0.036;stroke-miterlimit:10"
           d="m 155.07,208.63 c 1.871,3.816 2.988,7.381 3.348,10.549 0.324,3.168 -0.107,5.939 -1.295,8.459 l 3.348,2.088 c 0.324,-5.65 0.107,-10.15 -0.793,-13.643 -0.971,-3.529 -2.375,-6.012 -4.608,-7.453 z" /><path
           inkscape:connector-curvature="0"
           id="path27"
           style="fill-rule:evenodd;stroke:#000000;stroke-width:0.036;stroke-miterlimit:10"
           d="m 169.22,207.84 c 1.908,3.887 2.879,7.271 3.311,10.547 0.252,3.133 -0.035,6.012 -1.26,8.496 l 3.348,2.053 c 0.324,-5.652 0.109,-10.152 -0.791,-13.645 -0.973,-3.527 -2.378,-6.012 -4.608,-7.451 z" /><path
           inkscape:connector-curvature="0"
           id="path29"
           style="fill-rule:evenodd;stroke:#000000;stroke-width:0.036;stroke-miterlimit:10"
           d="m 118.93,228.94 c 2.449,0.145 4.5,-0.037 6.697,-0.541 2.051,-0.504 4.066,-1.332 5.902,-2.482 l 3.564,3.852 3.42,-6.697 c 2.268,1.441 3.961,2.664 4.932,3.674 0.938,1.043 1.297,1.871 0.938,2.482 1.295,-0.684 2.123,-1.367 2.627,-2.195 0.504,-0.828 0.541,-1.691 0.252,-2.592 0.576,0.287 1.225,0.828 1.801,1.764 0.576,0.973 1.08,1.98 1.656,3.564 1.223,-1.621 2.088,-3.133 2.447,-4.537 0.359,-1.512 0.217,-2.699 -0.287,-3.959 1.727,1.188 2.375,2.52 1.943,4.393 -0.396,1.799 -1.908,3.852 -4.393,6.299 l -1.908,-4.248 c -1.08,1.369 -2.088,2.377 -3.168,3.023 -1.152,0.648 -2.195,0.828 -3.42,0.686 -0.072,-1.584 -0.252,-2.773 -0.684,-3.709 -0.396,-0.936 -1.045,-1.619 -1.801,-1.908 l -4.643,6.697 -3.277,-4.393 c -2.412,1.225 -4.607,1.908 -6.73,2.053 -2.124,0.178 -4.032,-0.363 -5.868,-1.226 z" /><path
           inkscape:connector-curvature="0"
           id="path31"
           style="fill-rule:evenodd;stroke:#000000;stroke-width:0.036;stroke-miterlimit:10"
           d="m 203.6,229.01 c -1.727,0.107 -3.527,-0.072 -5.004,-0.396 -1.512,-0.396 -3.096,-1.008 -4.355,-1.836 l -2.664,2.844 -2.52,-4.969 c -1.729,1.045 -2.953,1.908 -3.672,2.736 -0.793,0.756 -0.938,1.369 -0.721,1.836 -0.936,-0.504 -1.584,-1.043 -1.943,-1.619 -0.361,-0.611 -0.469,-1.26 -0.18,-1.943 -0.506,0.143 -0.9,0.719 -1.332,1.332 -0.469,0.574 -0.828,1.584 -1.225,2.627 -0.936,-1.188 -1.549,-2.305 -1.836,-3.348 -0.252,-1.115 -0.18,-2.053 0.215,-2.953 -1.295,0.865 -1.727,1.908 -1.439,3.277 0.324,1.332 1.369,2.879 3.275,4.645 l 1.404,-3.133 c 0.721,1.008 1.549,1.801 2.34,2.232 0.793,0.432 1.693,0.648 2.557,0.504 0,-1.08 0.217,-2.125 0.504,-2.736 0.324,-0.648 0.721,-1.26 1.332,-1.439 l 3.457,5.004 2.447,-3.277 c 1.764,0.938 3.42,1.404 4.969,1.549 1.619,0.106 2.951,-0.254 4.391,-0.937 z" /><path
           inkscape:connector-curvature="0"
           id="path37"
           style="fill:none;stroke:#000000;stroke-width:0.036;stroke-miterlimit:10"
           d="m 125.33,153.41 c -2.305,0.07 -4.859,0.035 -7.74,-0.109" /></g></g></g><g
     inkscape:groupmode="layer"
     id="layer3"
     inkscape:label="Border"
     style="display:inline"><path
       id="path19"
       style="fill-rule:evenodd;stroke:#000000;stroke-width:0.036;stroke-miterlimit:10"
       d="m 161.17858,201.23141 c -4.176,4.752 -9.31158,8.55558 -12.80158,8.95158 -3.529,0.215 -8.137,-3.564 -9.252,-5.652 -1.152,-2.053 -0.252,-4.5 2.555,-6.947 -7.416,2.303 -12.168,2.592 -14.4,1.008 -2.268,-1.729 -1.871,-5.148 1.045,-10.801 -7.561,0.432 -12.313,-0.252 -14.652,-2.053 -2.268,-1.799 -1.98,-4.715 1.008,-8.746 -6.552,-5.94099 -9.755,-10.11699 -9.755,-13.10499 0,-2.879 3.204,-4.428 9.755,-4.355 -3.527,-6.805 -5.148,-11.557 -4.86,-14.4 0.288,-2.916 2.375,-3.635 6.409,-2.592 -2.736,-4.5 -3.672,-7.885 -2.809,-10.008 0.9,-2.195 3.457,-3.275 7.957,-3.096 -3.709,-4.033 -5.51,-6.984 -5.4,-9 0.107,-2.016 3.744,-2.628 5.904,-3.096 2.016,-0.576 4.211,-0.612 6.443,-0.252 -3.42,-4.86 -4.752,-8.244 -3.852,-10.008 0.863,-1.836 4.81506,-6.54775 9.99906,-5.28775 -3.924,-1.296 -7.15506,3.45175 -7.69606,5.53975 -0.576,2.052 0.541,5.688 3.35,11.052 -4.896,0.36 -8.102,1.08 -9.758,2.304 -1.619,1.115 -1.115,2.988 -0.287,4.645 0.648,1.691 2.16,3.49 4.393,5.398 -4.861,0.037 -7.777,1.189 -8.748,3.602 -0.973,2.303 -0.072,5.867 2.844,10.547 -3.348,-0.215 -5.328,0.289 -5.939,1.512 -0.613,1.225 0.863,3.025 2.051,5.689 1.117,2.592 2.484,5.795 4.393,9.756 -5.076,-0.109 -8.424,0.324 -10.044,1.295 -1.656,1.045 -1.296,2.305 0.252,4.607 1.513,2.232 4.464,4.934 8.999,8.49599 -2.555,3.385 -3.707,5.869 -3.6,7.453 0.109,1.477 1.621,1.691 4.393,2.051 2.809,0.361 6.875,0.576 12.348,0.506 -2.771,4.715 -3.924,7.848 -3.852,9.791 0.107,1.729 1.547,1.656 4.607,1.297 3.023,-0.361 7.381,-1.477 13.355,-3.35 -2.771,5.293 -3.707,8.93 -2.807,11.053 0.828,2.053 5.363,1.873 8.207,1.549 2.807,-0.398 7.22158,-3.22858 10.24558,-5.35358 z"
       inkscape:connector-curvature="0"
       sodipodi:nodetypes="ccccccccscccccccccccccccccccccccccccccccc" /><path
       id="path21"
       style="fill-rule:evenodd;stroke:#000000;stroke-width:0.036;stroke-miterlimit:10"
       d="m 134.23,102.68 c -0.828,-4.392001 -0.396,-7.308001 1.295,-8.748001 1.656,-1.476 4.572,-1.476 8.748,0 -3.023,-5.184 -3.924,-8.64 -2.844,-10.512 1.008,-1.836002 4.141,-2.232002 9.252,-0.792002 1.584,-5.22 3.205,-8.172 5.148,-9.252 1.836,-1.044 5.291,1.008 6.191,3.096 0.865,2.016 0.469,4.968 -1.043,9.000002 6.227,-1.44 10.332,-1.62 12.6,-0.54 2.16,1.044 2.375,3.313 0.504,6.948 6.984,-1.224 11.088,-1.044 12.6,0.54 1.404,1.584 0.217,4.536 -3.852,9.000001 7.74,0.936 12.275,2.736 13.896,5.4 1.512,2.664 -0.037,6.12 -4.645,10.512 7.271,1.799 11.34,3.78 12.6,5.94 1.225,2.123 -1.57506,6.92564 -6.39906,9.40964 2.916,-2.484 4.56306,-7.28664 2.80006,-9.40964 -1.801,-2.16 -5.867,-4.141 -12.348,-5.94 4.645,-3.636 5.977,-6.624 4.393,-9.252 -1.801,-2.628 -6.373,-4.716 -14.4,-6.408 3.852,-3.888001 5.039,-6.372001 4.104,-7.452001 -1.08,-1.152 -4.465,-0.684 -10.297,1.008 -0.756,-4.32 -2.158,-7.056 -4.607,-8.208 -2.484,-1.224 -5.615,-0.756 -9.791,1.26 1.26,-7.128002 1.475,-11.232002 0.791,-12.600002 -0.721,-1.26 -4.428,2.88 -5.148,4.644 -0.791,1.692 -0.756,3.492002 0.252,5.400002 -4.859,-0.864 -8.027,-1.044 -9.504,-0.252 -1.512,0.72 -0.18,2.628 0.504,4.608 0.648,1.908 1.549,4.176 3.098,6.948 -4.789,-1.656 -8.174,-1.944 -10.549,-1.008 -2.306,0.9 -3.422,3.168 -3.349,6.660001 z"
       inkscape:connector-curvature="0"
       sodipodi:nodetypes="cccccccccccccccccccccccccccccccc" /><path
       id="path23"
       style="fill-rule:evenodd;stroke:#000000;stroke-width:0.036;stroke-miterlimit:10"
       d="m 161.02142,200.80235 c 4.068,4.645 9.23858,9.55464 12.65858,9.87864 3.457,0.18 7.848,-3.492 9.145,-5.617 1.152,-2.123 0.18,-4.355 -2.52,-6.84 7.307,2.197 11.951,2.664 14.219,1.008 2.125,-1.691 1.873,-5.111 -1.043,-10.654 7.416,0.432 12.24,-0.289 14.473,-2.018 2.195,-1.871 1.906,-4.57 -1.01,-8.639 6.445,-5.83199 9.613,-10.00799 9.648,-12.96099 -0.035,-2.916 -3.203,-4.355 -9.648,-4.32 3.42,-6.768 5.076,-11.375 4.824,-14.219 -0.252,-2.844 -2.412,-3.637 -6.336,-2.52 3.168,-4.682 4.141,-7.992 2.773,-9.938 -1.369,-2.016 -5.004,-2.555 -10.908,-1.764 4.859,0.037 7.596,1.225 8.639,3.564 0.938,2.305 0,5.725 -2.807,10.404 3.275,-0.217 5.184,0.287 5.867,1.512 0.541,1.152 -0.936,3.023 -2.053,5.615 -1.08,2.557 -2.52,5.725 -4.318,9.648 4.967,-0.18 8.314,0.287 9.898,1.26 1.584,0.9 1.225,2.377 -0.252,4.572 -1.584,2.195 -4.5,4.85899 -8.891,8.38899 2.482,3.311 3.672,5.76 3.563,7.344 -0.143,1.547 -1.584,1.584 -4.318,2.051 -2.846,0.361 -6.77,0.576 -12.168,0.504 2.664,4.609 3.924,7.777 3.779,9.648 -0.18,1.764 -1.656,1.584 -4.572,1.26 -3.061,-0.432 -7.271,-1.402 -13.176,-3.311 2.699,5.256 3.672,8.855 2.771,10.943 -0.971,2.016 -5.291,1.871 -8.1,1.512 -2.769,-0.429 -7.14858,-4.15164 -10.13758,-6.31164 z"
       inkscape:connector-curvature="0"
       sodipodi:nodetypes="ccccccccccscccccccccccccccccccc" /><path
       style="opacity:1;fill:#61a121;fill-opacity:1;stroke:none;stroke-width:18.10000038;stroke-linecap:butt;stroke-linejoin:round;stroke-miterlimit:4;stroke-dasharray:none;stroke-dashoffset:0;stroke-opacity:1"
       d="m 158.27513,75.197643 c -1.84789,0.615055 -3.03104,2.462706 -4.15202,3.966289 -1.17829,1.770695 -1.59937,4.144064 -0.69935,6.10085 -2.9975,-0.32357 -6.31783,-1.296083 -9.17589,0.08537 -1.53818,1.083403 -0.0748,3.038475 0.23819,4.380908 0.82989,2.284295 1.84641,4.4926 2.8941,6.682846 -3.55271,-1.038161 -7.70542,-2.20087 -11.10034,-0.06683 -1.65425,1.123861 -2.10209,3.389429 -2.32837,5.119174 -2.93598,-0.72759 -5.33027,1.83181 -6.77093,4.06257 -1.93387,3.48706 0.0938,7.47075 1.52151,10.74618 0.5135,1.00857 1.32719,2.21581 -0.43953,1.91762 -2.98317,0.39194 -6.32686,0.71675 -8.67539,2.77814 -1.35758,2.06654 0.16418,4.64162 1.33517,6.4358 0.63538,1.06646 1.97498,2.1635 2.42983,2.964 -2.57937,0.35746 -5.82926,0.5713 -7.41633,2.94936 -1.97376,2.98913 -0.27202,6.60623 1.05562,9.481 0.55559,1.01784 1.45477,2.16699 -0.35558,1.76584 -1.71486,-0.0601 -4.40783,0.49934 -4.4743,2.63505 1.34698,3.75734 3.31995,7.28781 4.83042,10.99105 0.4965,1.11203 1.01327,2.21485 1.54977,3.30792 -3.4626,0.19563 -7.40643,-0.28554 -10.36812,1.8742 -1.39777,1.37702 0.23674,3.32201 0.95125,4.60502 2.29354,3.32662 5.64035,5.71285 8.66222,8.32514 -1.52323,2.24069 -3.30772,4.65651 -3.47474,7.44852 0.36501,1.94674 2.87117,1.95899 4.41574,2.28934 3.97838,0.55737 8.02591,0.43034 12.01549,0.52538 -1.34645,3.1545 -3.66736,6.25435 -3.44303,9.83347 0.42299,1.94659 2.92021,1.48619 4.36404,1.33468 4.50213,-0.58848 8.86584,-1.88794 13.2126,-3.15522 -1.41332,3.1117 -3.49012,6.60214 -2.57228,10.15494 0.85407,2.31756 3.79333,2.37019 5.86799,2.43374 4.93524,-0.0102 9.26388,-2.94382 13.08479,-5.67676 3.72498,2.35191 7.13891,6.16384 11.86866,6.15482 2.14108,-0.12948 5.17054,0.31166 6.388,-1.93274 1.13857,-2.90815 -0.46451,-6.01181 -1.53859,-8.69637 -0.0622,-0.47674 -1.30271,-2.00821 -0.30391,-1.6098 4.75545,1.3372 9.55867,2.90099 14.52825,3.0918 1.4362,0.16285 2.77472,-1.08284 2.38251,-2.55666 -0.46188,-3.00252 -2.00109,-5.6824 -3.37083,-8.3466 4.79465,-0.44956 9.72347,-0.11861 14.42581,-1.30297 1.55305,-0.34057 2.04457,-2.1523 1.38785,-3.47279 -0.72195,-2.03274 -1.93252,-3.84438 -3.144,-5.61236 3.54829,-3.09374 7.65059,-6.0004 9.75054,-10.34325 0.89028,-1.81447 -1.01958,-3.43676 -2.69728,-3.64639 -2.52313,-0.63242 -5.14253,-0.69191 -7.72987,-0.67082 1.92953,-4.51654 4.12767,-8.90011 6.03677,-13.41504 0.75065,-1.86288 -1.3831,-3.03832 -2.92643,-3.22644 -0.73439,-0.31907 -2.74282,0.35798 -2.32693,-0.54069 1.4886,-3.03595 3.6121,-6.69787 2.06107,-10.10647 -1.30865,-2.37343 -4.36428,-3.12227 -6.79484,-3.27181 2.03241,-1.89862 3.32958,-4.97212 2.68057,-7.75487 -1.30288,-2.88402 -4.60174,-4.05829 -7.29486,-5.28309 -1.64932,-0.67814 -3.41487,-1.17218 -5.06455,-1.76249 2.00956,-2.11634 5.03823,-4.44869 4.41136,-7.75048 -1.03304,-3.55765 -4.96719,-5.00166 -8.10509,-6.18129 -2.04031,-0.76058 -4.37492,-1.20499 -6.32462,-1.85115 1.47723,-2.046481 3.90119,-3.97409 3.8528,-6.708499 -0.56761,-1.903285 -3.06907,-1.338447 -4.546,-1.24394 -2.07288,0.16047 -4.10564,1.048664 -6.13921,1.128327 -0.55878,-3.497314 -2.38366,-7.604913 -6.22458,-8.386111 -2.71283,-0.566716 -5.40143,0.450143 -7.88707,1.431751 0.50277,-3.691033 1.37605,-7.536666 0.85563,-11.286688 -0.14374,-0.561295 -0.52533,-1.201364 -1.19369,-1.142474 z"
       id="path4298"
       inkscape:connector-curvature="0" /></g><metadata
     id="metadata26"><rdf:RDF><cc:Work><dc:format>image/svg+xml</dc:format><dc:type
           rdf:resource="http://purl.org/dc/dcmitype/StillImage" /><cc:license
           rdf:resource="http://creativecommons.org/licenses/publicdomain/" /><dc:publisher><cc:Agent
             rdf:about="http://openclipart.org/"><dc:title>Openclipart</dc:title></cc:Agent></dc:publisher><dc:title></dc:title><dc:date>2010-04-09T16:57:40</dc:date><dc:description>Small trees or bushes.</dc:description><dc:source>https://openclipart.org/detail/44023/small-trees-/-bushes-by-gerald_g</dc:source><dc:creator><cc:Agent><dc:title>Gerald_G</dc:title></cc:Agent></dc:creator><dc:subject><rdf:Bag><rdf:li>bush</rdf:li><rdf:li>nature</rdf:li><rdf:li>tree</rdf:li></rdf:Bag></dc:subject></cc:Work><cc:License
         rdf:about="http://creativecommons.org/licenses/publicdomain/"><cc:permits
           rdf:resource="http://creativecommons.org/ns#Reproduction" /><cc:permits
           rdf:resource="http://creativecommons.org/ns#Distribution" /><cc:permits
           rdf:resource="http://creativecommons.org/ns#DerivativeWorks" /></cc:License></rdf:RDF></metadata></svg>